<?xml version="1.0" standalone="no"?>
<!DOCTYPE svg PUBLIC "-//W3C//DTD SVG 20010904//EN"
 "http://www.w3.org/TR/2001/REC-SVG-20010904/DTD/svg10.dtd">
<svg version="1.0" xmlns="http://www.w3.org/2000/svg"
 width="1177.000000pt" height="1177.000000pt" viewBox="0 0 1177.000000 1177.000000"
 preserveAspectRatio="xMidYMid meet">
<metadata>
Created by potrace 1.11, written by Peter Selinger 2001-2013
</metadata>
<g transform="translate(0.000000,1177.000000) scale(0.100000,-0.100000)"
fill="#000000" stroke="none">
<path d="M1688 10085 c-2 -1 -43 -5 -92 -9 -278 -20 -596 -127 -892 -301 -668
-394 -860 -884 -558 -1426 199 -358 658 -776 1269 -1153 77 -48 147 -91 155
-96 15 -9 235 -135 315 -181 153 -86 685 -356 880 -446 50 -23 134 -62 188
-87 55 -25 103 -46 108 -46 4 0 23 -8 41 -18 18 -10 81 -38 140 -62 59 -25
108 -48 108 -52 0 -5 -42 -17 -125 -34 -5 -1 -43 -12 -84 -24 -41 -12 -81 -23
-90 -25 -9 -2 -86 -26 -171 -55 -269 -89 -535 -206 -760 -333 -108 -62 -340
-212 -375 -244 -11 -10 -38 -31 -60 -48 -116 -86 -298 -264 -390 -380 -22 -27
-44 -55 -50 -61 -5 -6 -17 -22 -25 -34 -8 -12 -19 -28 -25 -34 -16 -18 -34
-49 -45 -74 -6 -14 -15 -20 -22 -16 -7 4 -8 3 -4 -5 4 -6 3 -17 -2 -24 -13
-16 -90 -169 -92 -182 0 -5 -7 -19 -14 -30 -7 -11 -24 -54 -36 -95 -13 -41
-26 -77 -29 -80 -3 -3 -7 -12 -7 -20 -1 -8 -4 -26 -7 -40 -3 -14 -8 -36 -11
-50 -3 -14 -8 -45 -11 -70 -3 -25 -8 -56 -10 -70 -3 -14 -6 -49 -7 -78 0 -29
-5 -55 -10 -59 -6 -3 -114 -5 -241 -5 -217 0 -332 9 -392 32 -36 14 -33 -10 8
-50 115 -114 438 -229 628 -225 25 1 27 -3 38 -65 16 -89 74 -258 121 -355
143 -296 348 -537 690 -809 164 -130 521 -335 760 -436 41 -17 84 -35 95 -40
218 -101 847 -276 1095 -306 25 -2 52 -7 61 -10 10 -2 30 -6 45 -8 16 -2 65
-9 109 -15 44 -6 109 -13 145 -17 36 -3 75 -7 88 -9 168 -27 1023 -27 1165 1
11 2 52 6 91 9 84 7 121 12 196 25 30 5 78 12 105 16 28 3 115 19 195 36 80
16 154 31 166 34 11 2 65 15 120 29 54 15 107 28 117 30 30 7 280 85 307 97
14 5 63 24 110 40 47 16 89 34 95 39 5 5 14 9 21 9 27 0 360 159 503 240 69
39 74 40 94 25 42 -31 192 -130 217 -143 204 -110 362 -170 560 -212 58 -13
121 -31 140 -40 120 -60 307 -96 359 -68 35 18 64 73 67 125 3 54 -29 97 -86
114 -35 11 -37 13 -30 40 9 32 -10 62 -51 77 -42 16 -140 5 -227 -26 -68 -24
-95 -29 -145 -25 -185 13 -419 116 -593 261 l-42 35 97 75 c129 101 152 120
253 219 l87 84 48 -16 c75 -26 161 -43 248 -50 44 -4 85 -11 90 -15 12 -9 54
-19 103 -26 49 -6 87 14 87 46 0 18 6 26 23 28 57 8 67 105 15 139 -22 15 -34
15 -93 5 -38 -6 -94 -23 -124 -36 -42 -19 -69 -24 -113 -21 -57 2 -180 32
-187 44 -3 4 22 41 54 84 33 43 74 102 92 132 36 60 44 63 109 39 51 -18 290
-72 352 -80 23 -3 56 -7 72 -9 110 -16 172 -19 350 -20 186 0 338 7 410 20
231 41 307 59 455 106 316 101 624 269 865 472 99 84 225 210 277 279 15 20
33 42 40 50 34 35 136 193 189 293 84 158 164 371 184 492 3 18 11 61 18 95
22 102 29 344 15 495 -5 60 -3 76 11 95 34 46 101 205 116 273 28 135 32 175
29 296 -3 144 -5 159 -29 262 -73 312 -260 567 -503 686 -101 50 -232 74 -334
61 l-50 -7 7 81 c4 45 9 101 11 126 7 71 7 449 0 515 -3 33 -9 85 -12 115 -5
45 -22 136 -49 265 -3 12 -18 59 -35 105 -51 141 -120 253 -202 328 -35 33
-36 36 -24 61 72 138 -67 285 -234 246 -127 -29 -188 -170 -114 -262 57 -70
152 -97 240 -68 27 10 57 24 67 33 16 14 19 13 43 -9 131 -121 234 -377 260
-644 3 -33 7 -76 10 -95 10 -90 4 -439 -11 -560 -2 -19 -7 -64 -11 -100 -3
-36 -9 -82 -13 -102 l-6 -38 -59 80 c-116 158 -251 276 -396 346 -44 21 -47
26 -114 175 -60 131 -112 234 -184 363 -27 48 -149 231 -186 280 -90 118 -224
262 -316 339 -44 38 -241 172 -261 179 -7 2 -6 14 1 33 18 46 14 139 -8 189
-72 163 -266 233 -428 155 -111 -53 -169 -144 -167 -264 1 -121 61 -211 173
-264 45 -21 70 -26 135 -26 69 0 88 4 139 30 32 17 76 50 97 74 l39 43 52 -33
c292 -183 538 -478 748 -898 58 -114 140 -299 140 -314 0 -2 -24 2 -52 11 -33
9 -100 14 -178 14 -109 0 -136 -3 -210 -27 -140 -45 -242 -107 -341 -208 l-45
-47 -170 0 c-93 0 -180 -2 -194 -4 -14 -3 -61 -7 -105 -11 -491 -40 -1007
-250 -1390 -564 -95 -78 -222 -203 -291 -286 -27 -33 -52 -61 -56 -63 -5 -2
-8 -10 -8 -17 0 -7 -3 -15 -7 -17 -27 -11 -154 -212 -212 -334 l-34 -71 -106
42 c-58 24 -171 64 -251 90 -80 27 -146 49 -148 50 -1 1 18 39 43 84 97 175
395 759 395 774 0 2 24 56 54 118 47 99 84 183 131 294 7 17 20 46 29 67 97
218 258 701 302 902 46 210 64 343 68 508 6 214 -41 407 -128 533 -42 60 -137
143 -205 179 -141 74 -344 104 -552 81 -30 -3 -72 -8 -94 -10 -40 -5 -106 -15
-135 -20 -199 -40 -373 -95 -495 -156 -79 -40 -177 -104 -183 -121 -2 -4 -8
-8 -12 -8 -13 0 -110 -105 -143 -154 -85 -125 -131 -263 -153 -456 -16 -133
-7 -414 20 -625 7 -57 18 -154 22 -184 1 -14 5 -53 9 -85 3 -33 8 -62 10 -65
2 -3 6 -46 10 -96 4 -49 9 -92 10 -95 2 -3 7 -42 10 -85 4 -44 9 -88 10 -97 7
-34 18 -315 18 -438 0 -113 -9 -301 -18 -373 -3 -29 -15 -50 -15 -28 0 21
-260 534 -346 684 -19 32 -34 60 -34 61 0 2 -37 66 -82 142 -45 77 -86 149
-92 161 -6 13 -14 23 -18 23 -5 0 -8 5 -8 10 0 6 -18 38 -40 71 -22 33 -40 63
-40 65 0 3 -8 17 -19 32 -10 15 -69 103 -130 196 -499 755 -992 1285 -1526
1641 -285 190 -627 340 -890 391 -22 4 -42 8 -45 9 -3 0 -32 5 -65 9 -32 4
-68 10 -80 12 -22 5 -282 13 -287 9z"/>
</g>
</svg>
